<?xml version="1.0" encoding="UTF-8" standalone="no"?>
<svg
   xmlns:dc="http://purl.org/dc/elements/1.1/"
   xmlns:cc="http://creativecommons.org/ns#"
   xmlns:rdf="http://www.w3.org/1999/02/22-rdf-syntax-ns#"
   xmlns:svg="http://www.w3.org/2000/svg"
   xmlns="http://www.w3.org/2000/svg"
   xmlns:sodipodi="http://sodipodi.sourceforge.net/DTD/sodipodi-0.dtd"
   xmlns:inkscape="http://www.inkscape.org/namespaces/inkscape"
   width="494.70081"
   height="508.51965"
   id="svg2"
   version="1.1"
   inkscape:version="0.91 r13725"
   sodipodi:docname="handicapped.svg">
  <metadata
     id="metadata16">
    <rdf:RDF>
      <cc:Work
         rdf:about="">
        <dc:format>image/svg+xml</dc:format>
        <dc:type
           rdf:resource="http://purl.org/dc/dcmitype/StillImage" />
        <dc:title>light pink handicapped symbol</dc:title>
      </cc:Work>
    </rdf:RDF>
  </metadata>
  <defs
     id="defs14" />
  <sodipodi:namedview
     pagecolor="#ffffff"
     bordercolor="#666666"
     borderopacity="1"
     objecttolerance="10"
     gridtolerance="10"
     guidetolerance="10"
     inkscape:pageopacity="0"
     inkscape:pageshadow="2"
     inkscape:window-width="1600"
     inkscape:window-height="853"
     id="namedview12"
     showgrid="false"
     inkscape:zoom="0.21024131"
     inkscape:cx="396.8504"
     inkscape:cy="561.25983"
     inkscape:window-x="-4"
     inkscape:window-y="-4"
     inkscape:window-maximized="1"
     inkscape:current-layer="svg2" />
  <title
     id="title4">light pink handicapped symbol</title>
  <g
     id="g6"
     transform="translate(-109.3981,-281.80957)"
     style="fill:#ffffff;fill-opacity:1">
    <title
       id="title8">Layer 1</title>
    <g
       id="layer1"
       style="fill:#ffffff;fill-opacity:1">
      <path
         id="path1631"
         d="m 415.1424,562.18475 c -19.16217,-4.3587 -119.5123,-0.72296 -148.52967,-0.72711 -0.89456,-63.05612 -1.12097,-126.12097 -1.65503,-189.18149 -18.05584,-18.97146 -8.59857,-53.27658 16.51468,-60.64514 24.86228,-10.24203 55.53583,12.78543 51.48883,39.82822 1.08887,21.36285 -23.75158,26.56335 -32.13272,38.34237 -0.60208,24.94901 -1.15405,49.98459 0.36832,74.89911 33.80154,2.7175 68.06201,0.71592 102.06781,1.18109 0,10.96479 0,21.92957 0,32.89435 -33.30991,0 -66.61978,0 -99.92966,0 -8.21414,18.98398 -0.0644,34.64279 -1.86981,32.89658 37.59576,0.18262 99.19229,0.0736 136.78842,0.10339 21.56485,44.32044 42.31314,89.25788 64.08261,133.32617 22.86774,-2.76446 39.46942,-15.6875 48.16162,-16.24359 9.52405,-0.82269 9.7685,29.55127 8.71411,28.64673 -20.42248,7.35291 -52.65448,23.24317 -73.19171,30.27075 -5.17828,-8.3908 -51.59695,-105.93292 -70.8778,-145.59143 z M 298.74924,751.28516 c -44.84998,-4.99024 -76.21781,-18.3957 -100.14801,-39.89124 -34.22019,-29.82873 -53.99079,-75.90564 -48.72152,-121.46411 2.55378,-51.65356 37.03711,-98.40021 82.69518,-121.08151 7.24603,6.71121 2.37161,24.0307 3.66803,35.44345 1.93179,9.90155 -11.19061,12.62012 -15.99545,19.46496 -33.91123,32.49207 -41.34021,87.91755 -19.90461,129.32459 22.67661,47.04913 80.05134,76.56323 131.23093,62.16583 38.3725,-9.64361 68.77198,-38.60522 88.96967,-71.57415 8.44436,6.77276 26.44366,35.45165 8.22079,48.10376 -30.80154,38.68695 -80.151,62.9508 -130.01501,59.50842 z"
         inkscape:connector-curvature="0"
         style="fill:#ffffff;fill-opacity:1" />
    </g>
  </g>
</svg>
